<?xml version="1.0" encoding="UTF-8"?>
<!-- Generator: Adobe Illustrator 13.0.2, SVG Export Plug-In . SVG Version: 6.00 Build 14948)  -->
<!DOCTYPE svg PUBLIC "-//W3C//DTD SVG 1.1//EN" "http://www.w3.org/Graphics/SVG/1.1/DTD/svg11.dtd">
<svg xmlns="http://www.w3.org/2000/svg" xmlns:xlink="http://www.w3.org/1999/xlink" xmlns:svg="http://www.w3.org/2000/svg" xmlns:dc="http://purl.org/dc/elements/1.1/" xmlns:cc="http://web.resource.org/cc/" xmlns:rdf="http://www.w3.org/1999/02/22-rdf-syntax-ns#" version="1.1" id="Layer_1" x="0px" y="0px" width="407.664px" height="132.521px" viewBox="0 0 407.664 132.521" style="enable-background:new 0 0 407.664 132.521;" xml:space="preserve">
<path style="fill:#D8D9DB;" d="M270.529,49.199c-1.209,4.003-5.772,2.359-8.454,2.817c-14.644,2.507-30.994,5.867-46.968,9.394  c-5.614,1.24-11.658,4.408-16.907,4.697c-5.329,0.292-13.018-1.858-19.726-2.818c-34.447-4.93-77.148-11.992-113.66-19.726  c-14.846-3.146-26.804-5-40.392-9.395c-6.527-2.109-13.41-4.945-17.847-9.394C101.528,21.867,184.164,43.578,270.529,49.199z"/>
<path style="fill:#D8D9DB;" d="M266.771,75.5c-12.379,5.468-30.203,5.49-42.27,11.271c-69.07,10.155-133.877,33.51-210.413,30.061  c2.286-4.336,8.044-4.918,12.211-6.577c12.343-4.914,26.052-10.07,41.331-14.09c37.803-9.939,81.344-16.935,122.114-26.302  c21.575-4.957,42.297-7.988,60.118-14.09C256.984,53.336,262.812,72.953,266.771,75.5z"/>
<path d="M278.982,70.805c-7.129,0.376-10.784-1.178-11.271-5.638C266.266,51.902,291.922,59.864,278.982,70.805z M271.471,67.046  c0.873-2.256,3.773-2.487,2.816-6.576C269.215,59.15,268.275,65.371,271.471,67.046z M277.104,68.926  c1.299-1.521,3.326-2.312,2.819-5.637c-1.2-0.052-1.302-1.205-2.819-0.938C277.195,65.075,273.148,67.752,277.104,68.926z"/>
<path style="fill:#D8D9DB;" d="M274.287,60.471c0.957,4.088-1.943,4.318-2.816,6.575C268.275,65.371,269.215,59.15,274.287,60.471z"/>
<path style="fill:#D8D9DB;" d="M277.104,62.35c1.519-0.266,1.619,0.888,2.819,0.938c0.507,3.324-1.521,4.116-2.819,5.637  C273.148,67.752,277.195,65.075,277.104,62.35z"/>
<path style="fill:#D8D9DB;" d="M305.285,66.107c3.087,1.922,4.888,5.132,6.576,8.454c-3.98,3.848-11.697,3.958-15.03,8.454  c-7.483,0.595-11.104-2.672-18.786-1.88C284.648,73.651,305.1,80.009,305.285,66.107z"/>
<path style="fill:#D8D9DB;" d="M394.522,129.042c-13.666,1.031-20.687-2.588-33.816-6.575c-18.049-5.48-36.546-7.854-34.756-31.938  c-6.415-4.229-18.113-3.178-25.362-6.574c3.348-4.17,9.915-5.113,14.091-8.455c16.441,9.068,45.017,13.362,68.571,18.786  c5.763,1.327,12.999,2.207,15.029,3.758C405.077,103.237,405.422,126.958,394.522,129.042z M350.374,115.893  c6.182,2.412,28.705,9.751,36.634,8.454c5.367-0.88,11.31-6.574,10.333-12.214c-1.678-9.686-32.624-10.672-49.785-15.028  c-5.266-1.336-12.092-4.961-17.848-3.758c-0.942-0.003-1.117,0.763-1.879,0.938C329.698,106.782,339.989,111.838,350.374,115.893z"/>
<path style="fill:#D8D9DB;" d="M256.439,81.135c2.983,1.369-2.516,1.965-5.637,2.819c-20.935,5.729-46.232,9.291-67.632,14.089  c-25.875,5.803-51.86,12.47-77.965,15.029C155.35,102.16,205.923,91.677,256.439,81.135z"/>
<path d="M327.829,94.286c0.762-0.177,0.937-0.941,1.879-0.938c5.756-1.203,12.582,2.422,17.848,3.758  c17.161,4.356,48.107,5.344,49.785,15.028c0.977,5.64-4.966,11.334-10.333,12.214c-7.929,1.297-30.452-6.042-36.634-8.454  C339.989,111.838,329.698,106.782,327.829,94.286z M354.131,114.013c10.42,3.782,26.896,9.967,38.513,5.636  c0.975-2.47,1.125-5.765,0.939-9.395c-18.38-7.606-42.851-9.125-61.996-15.969C333.114,106.929,343.443,110.133,354.131,114.013z"/>
<path style="fill:#D8D9DB;" d="M104.267,113.073c-2.037,1.407-5.287,1.602-8.454,1.88  C97.427,113.122,100.677,112.927,104.267,113.073z"/>
<path d="M336.283,117.77c-7.593-5.871-14.854-12.074-14.09-26.301c-19.723-1.569-36.586-5.997-54.481-9.395  c-21.237,7.204-45.257,9.481-68.572,15.029c-7.071,1.684-13.346,3.156-20.666,4.695c-14.715,3.098-33.577,8.38-50.725,11.272  c-29.098,4.911-60.572,7.568-92.055,8.454c-10.667,0.3-20.157-0.329-30.998-2.818c4.893-5.596,12.789-7.218,19.726-10.331  c45.237-20.307,107.17-29.084,163.446-40.393c-7.126-3.904-15.372-2.501-23.483-3.757c-28.206-4.365-58.571-10.469-87.358-15.97  c-22.044-4.211-43.843-6.762-62.936-15.028C9.192,31.109,0.623,29.168,0,21.958c55.709-3.658,107.003,5.28,157.81,11.271  c16.686,1.968,33.002,4.223,49.786,6.576c15.893,2.228,32.684,4.958,48.846,6.574c7.558,0.756,15.195-1.25,22.543,2.818  c16.32-6.851,37.404-8.936,55.421-14.09c5.276-21.627,19.044-37.723,46.027-34.756c7.386,4.825,12.045,12.378,10.334,26.302  c-2.918,9.327-16.49,11.368-24.425,17.847c-3.786,3.092-5.781,9.903-10.333,10.333c-5.482,0.519-8.168-6.786-15.028-7.515  c-8.277-0.88-22.478,3.834-28.181,8.453c-5.846,4.734-6.18,7.167-0.938,13.151c10.062,11.49,44.169,17.64,65.753,22.544  c10.062,2.285,21.869,1.439,26.302,7.516c3.188,4.369,4.941,16.72,2.817,22.543c-1.374,3.771-8.192,9.255-12.211,10.334  c-9.679,2.597-22.286-3.13-30.061-5.638C354.979,123.164,345.873,122.163,336.283,117.77z M387.946,26.655  C394.09,1.552,365.899-3.31,355.07,9.746c7.181-6.019,26.927-7.131,30.059,2.818c1.865,5.923-2.147,16.02-3.758,17.848  c-4.746,5.398-23.796,10.055-35.694,9.395c-4.893-3.812-3.626-14.546-0.938-19.727c2.367-4.562,8.859-6.688,8.454-10.333  c-8.689,5.401-13.479,14.702-15.97,26.302c-14.238,6.427-34.775,6.555-48.846,13.15c8.344,0.739,13.51,4.651,18.787,8.454  c9.811-9.952,36.962-17.89,49.785-5.637C364.083,40.365,380.787,38.281,387.946,26.655z M347.556,37.927  c19.257-1.095,37.285-3.42,35.694-25.362C367.91-2.617,335.859,17.583,347.556,37.927z M6.576,24.775  c4.438,4.448,11.32,7.284,17.847,9.394c13.588,4.394,25.546,6.249,40.392,9.395c36.512,7.733,79.213,14.796,113.66,19.726  c6.708,0.96,14.397,3.11,19.726,2.818c5.249-0.289,11.293-3.457,16.908-4.697c15.973-3.526,32.322-6.887,46.967-9.394  c2.682-0.458,7.246,1.186,8.454-2.817C184.164,43.578,101.528,21.867,6.576,24.775z M260.197,81.135  c14.52-2.387,26.666-7.147,41.33-9.394c0.563-5.698,3.38-9.145,4.697-14.089c-8.242-2.092-13.608-7.057-23.483-7.515  c-5.296,4.41-17.188,2.226-21.604,7.515c1.381,8.012,6.034,12.751,9.393,18.786C267.988,78.308,259.93,79.577,260.197,81.135z   M249.864,55.773c-17.821,6.102-38.544,9.133-60.118,14.09c-40.77,9.367-84.311,16.361-122.114,26.302  c-15.278,4.02-28.987,9.176-41.331,14.09c-4.167,1.659-9.925,2.241-12.211,6.577c76.535,3.449,141.343-19.904,210.413-30.061  c12.065-5.781,29.89-5.805,42.271-11.271C262.812,72.953,256.984,53.336,249.864,55.773z M278.045,81.135  c7.682-0.792,11.303,2.475,18.786,1.88c3.333-4.496,11.05-4.606,15.03-8.454c-1.688-3.321-3.489-6.531-6.576-8.454  C305.1,80.009,284.648,73.651,278.045,81.135z M398.279,98.044c-2.03-1.551-9.268-2.431-15.029-3.758  c-23.556-5.424-52.13-9.718-68.571-18.786c-4.176,3.342-10.743,4.285-14.091,8.455c7.249,3.396,18.947,2.345,25.362,6.574  c-1.79,24.083,16.707,26.456,34.756,31.938c13.131,3.987,20.15,7.606,33.816,6.575C405.422,126.958,405.077,103.237,398.279,98.044z   M105.207,113.073c26.105-2.561,52.09-9.229,77.965-15.029c21.398-4.798,46.698-8.36,67.633-14.089  c3.12-0.854,8.619-1.45,5.637-2.819C205.923,91.677,155.35,102.16,105.207,113.073z M95.812,114.953  c3.167-0.278,6.417-0.473,8.454-1.88C100.677,112.927,97.427,113.122,95.812,114.953z"/>
<path style="fill:#D8D9DB;" d="M356.949,52.016c-12.823-12.253-39.976-4.315-49.785,5.637c-5.278-3.803-10.443-7.715-18.787-8.454  c14.068-6.597,34.606-6.724,48.846-13.15c2.489-11.601,7.279-20.9,15.97-26.302c0.405,3.646-6.087,5.771-8.454,10.333  c-2.688,5.181-3.953,15.916,0.938,19.727c11.898,0.661,30.948-3.996,35.694-9.395c1.609-1.828,5.623-11.925,3.758-17.848  c-3.132-9.949-22.878-8.837-30.059-2.818c10.829-13.056,39.02-8.194,32.876,16.909C380.787,38.281,364.083,40.365,356.949,52.016z"/>
<path style="fill:#D8D9DB;" d="M270.529,76.438c-3.358-6.034-8.014-10.774-9.394-18.786c4.417-5.289,16.31-3.104,21.604-7.515  c9.875,0.458,15.242,5.422,23.482,7.515c-1.316,4.944-4.133,8.391-4.695,14.089c-14.666,2.245-26.812,7.007-41.332,9.394  C259.93,79.577,267.988,78.308,270.529,76.438z M267.712,65.167c0.486,4.46,4.144,6.014,11.271,5.638  C291.922,59.864,266.266,51.902,267.712,65.167z"/>
<metadata><rdf:RDF><cc:Work><dc:format>image/svg+xml</dc:format><dc:type rdf:resource="http://purl.org/dc/dcmitype/StillImage"/><cc:license rdf:resource="http://creativecommons.org/licenses/publicdomain/"/><dc:publisher><cc:Agent rdf:about="http://openclipart.org/"><dc:title>Open Clip Art Library</dc:title></cc:Agent></dc:publisher><dc:title>paper shears</dc:title><dc:date>2007-11-25T05:09:59</dc:date><dc:description>Practical Physics for Nurses by Minnie Goodnow, R.N. 1919</dc:description><dc:source>http://openclipart.org/detail/8978/paper-shears-by-johnny_automatic-8978</dc:source><dc:creator><cc:Agent><dc:title>johnny_automatic</dc:title></cc:Agent></dc:creator><dc:subject><rdf:Bag><rdf:li>clip art</rdf:li><rdf:li>clipart</rdf:li><rdf:li>externalsource</rdf:li><rdf:li>image</rdf:li><rdf:li>media</rdf:li><rdf:li>png</rdf:li><rdf:li>public domain</rdf:li><rdf:li>scissors</rdf:li><rdf:li>scissors</rdf:li><rdf:li>shears</rdf:li><rdf:li>shears</rdf:li><rdf:li>svg</rdf:li><rdf:li>tool</rdf:li><rdf:li>tool</rdf:li></rdf:Bag></dc:subject></cc:Work><cc:License rdf:about="http://creativecommons.org/licenses/publicdomain/"><cc:permits rdf:resource="http://creativecommons.org/ns#Reproduction"/><cc:permits rdf:resource="http://creativecommons.org/ns#Distribution"/><cc:permits rdf:resource="http://creativecommons.org/ns#DerivativeWorks"/></cc:License></rdf:RDF></metadata></svg>
